Coordinates
version=1
nRows=7
nColumns=40
inDegrees=yes

Units are S.I. units (second, meters, Newtons, ...)
If the header above contains a line with 'inDegrees', this indicates whether rotational values are in degrees (yes) or radians (no).

endheader
time	pelvis_tilt	pelvis_list	pelvis_rotation	pelvis_tx	pelvis_ty	pelvis_tz	hip_flexion_r	hip_adduction_r	hip_rotation_r	knee_angle_r	knee_angle_r_beta	ankle_angle_r	subtalar_angle_r	mtp_angle_r	hip_flexion_l	hip_adduction_l	hip_rotation_l	knee_angle_l	knee_angle_l_beta	ankle_angle_l	subtalar_angle_l	mtp_angle_l	lumbar_extension	lumbar_bending	lumbar_rotation	arm_flex_r	arm_add_r	arm_rot_r	elbow_flex_r	pro_sup_r	wrist_flex_r	wrist_dev_r	arm_flex_l	arm_add_l	arm_rot_l	elbow_flex_l	pro_sup_l	wrist_flex_l	wrist_dev_l
      4.01000000	    -14.64601455	     -2.05414778	      1.79390067	     -0.32516263	      0.80398247	     -0.89280195	     56.47785068	    -17.74941055	    -12.25498743	     77.34635223	      1.34994851	     36.43017974	      0.00000000	      0.00000000	     59.96689569	    -23.78766209	     -8.82752142	     77.32620463	      1.34959687	     29.44886863	      0.00000000	      0.00000000	    -18.60397582	      0.67045788	      7.96210890	     34.23775698	    -50.03192296	     89.56908777	     90.96437974	     88.42738218	      0.00000000	      0.00000000	     36.20621181	    -45.84963810	     89.66560672	     90.27739425	     88.51295962	      0.00000000	      0.00000000
      4.01500000	    -14.02125283	     -2.00590757	      1.73862296	     -0.32200224	      0.81258252	     -0.89316458	     54.76053348	    -17.64512768	    -12.68055388	     75.80327917	      1.32301681	     35.79111120	      0.00000000	      0.00000000	     58.11964620	    -23.62048374	     -9.33132221	     75.86324421	      1.32406339	     28.90150609	      0.00000000	      0.00000000	    -18.30099116	      0.71346795	      7.95022058	     34.47469120	    -49.65687016	     89.58747188	     90.26303828	     88.42925877	      0.00000000	      0.00000000	     36.24734897	    -45.40148115	     89.67265659	     89.37241806	     88.51237538	      0.00000000	      0.00000000
      4.02000000	    -13.36107261	     -1.90106492	      1.58755686	     -0.31830729	      0.82121191	     -0.89333119	     53.00269671	    -17.54398076	    -13.11310235	     74.27470433	      1.29633814	     35.19303224	      0.00000000	      0.00000000	     56.11319548	    -23.57793117	    -10.07339382	     74.37269904	      1.29804847	     28.45567099	      0.00000000	      0.00000000	    -17.99884843	      0.65915786	      7.96080201	     34.68537131	    -49.30191003	     89.59762262	     89.61901494	     88.43796506	      0.00000000	      0.00000000	     36.12630769	    -45.11383129	     89.67655822	     88.61900825	     88.52113062	      0.00000000	      0.00000000
      4.02500000	    -12.71077659	     -1.86457192	      1.54310784	     -0.31479377	      0.83003563	     -0.89352323	     51.19517931	    -17.45221759	    -13.65999167	     72.66584893	      1.26825832	     34.58425519	      0.00000000	      0.00000000	     54.16224126	    -23.49063116	    -10.73694560	     72.80504479	      1.27068774	     27.82628952	      0.00000000	      0.00000000	    -17.69770861	      0.69139469	      7.87790752	     34.92233147	    -48.96331938	     89.60559505	     89.04685078	     88.44672188	      0.00000000	      0.00000000	     36.03410924	    -44.87646652	     89.68307603	     87.95696991	     88.53147981	      0.00000000	      0.00000000
      4.03000000	    -12.25709915	     -1.94274165	      1.62758971	     -0.31122804	      0.83892491	     -0.89385113	     49.47577713	    -17.35326464	    -14.38590151	     70.93863170	      1.23811269	     33.79886632	      0.00000000	      0.00000000	     52.50422483	    -23.34795461	    -11.20590669	     71.19202537	      1.24253524	     27.18522401	      0.00000000	      0.00000000	    -17.17208730	      0.87092806	      7.65925367	     35.11373204	    -48.58294776	     89.61561620	     88.31994467	     88.44782926	      0.00000000	      0.00000000	     35.83327983	    -44.61903404	     89.68981373	     87.15051201	     88.53245803	      0.00000000	      0.00000000
      4.03500000	    -11.69030657	     -1.92482884	      1.63493418	     -0.30733218	      0.84828555	     -0.89412330	     47.62035561	    -17.28915532	    -15.11901696	     69.10296664	      1.20607429	     33.09357523	      0.00000000	      0.00000000	     50.55313741	    -23.25566062	    -11.99625599	     69.43696060	      1.21190359	     26.40160848	      0.00000000	      0.00000000	    -16.73133161	      0.95139021	      7.46200753	     35.30452954	    -48.15060365	     89.62438830	     87.65057060	     88.44918487	      0.00000000	      0.00000000	     35.55993942	    -44.36813505	     89.69048044	     86.36693215	     88.53594929	      0.00000000	      0.00000000
      4.04000000	    -11.19825863	     -1.85846134	      1.64016749	     -0.30336841	      0.85783475	     -0.89439210	     45.81557932	    -17.25816629	    -15.85521285	     67.20439174	      1.17293791	     32.21587872	      0.00000000	      0.00000000	     48.60973955	    -23.11177728	    -12.86706650	     67.58362183	      1.17955672	     25.57599197	      0.00000000	      0.00000000	    -16.22419703	      0.97384588	      7.23559710	     35.49723451	    -47.65564863	     89.62823765	     86.88787788	     88.42630841	      0.00000000	      0.00000000	     35.24862794	    -44.21364187	     89.69287982	     85.68343031	     88.54016180	      0.00000000	      0.00000000
